<svg aria-roledescription="er" role="graphics-document document" viewBox="0 0 1206.19482421875 815" height="815" xmlns="http://www.w3.org/2000/svg" width="1206.19482421875" id="container"><style>#container{font-family:"trebuchet ms",verdana,arial,sans-serif;font-size:16px;fill:#333;}#container .error-icon{fill:#552222;}#container .error-text{fill:#552222;stroke:#552222;}#container .edge-thickness-normal{stroke-width:2px;}#container .edge-thickness-thick{stroke-width:3.5px;}#container .edge-pattern-solid{stroke-dasharray:0;}#container .edge-pattern-dashed{stroke-dasharray:3;}#container .edge-pattern-dotted{stroke-dasharray:2;}#container .marker{fill:#333333;stroke:#333333;}#container .marker.cross{stroke:#333333;}#container svg{font-family:"trebuchet ms",verdana,arial,sans-serif;font-size:16px;}#container .entityBox{fill:#ECECFF;stroke:#9370DB;}#container .attributeBoxOdd{fill:#ffffff;stroke:#9370DB;}#container .attributeBoxEven{fill:#f2f2f2;stroke:#9370DB;}#container .relationshipLabelBox{fill:hsl(80, 100%, 96.2745098039%);opacity:0.7;background-color:hsl(80, 100%, 96.2745098039%);}#container .relationshipLabelBox rect{opacity:0.5;}#container .relationshipLine{stroke:#333333;}#container .entityTitleText{text-anchor:middle;font-size:18px;fill:#333;}#container :root{--mermaid-font-family:"trebuchet ms",verdana,arial,sans-serif;}</style><g></g><defs><marker orient="auto" markerHeight="18" markerWidth="18" refY="9" refX="0" id="ONLY_ONE_START"><path d="M9,0 L9,18 M15,0 L15,18" fill="none" stroke="gray"></path></marker></defs><defs><marker orient="auto" markerHeight="18" markerWidth="18" refY="9" refX="18" id="ONLY_ONE_END"><path d="M3,0 L3,18 M9,0 L9,18" fill="none" stroke="gray"></path></marker></defs><defs><marker orient="auto" markerHeight="18" markerWidth="30" refY="9" refX="0" id="ZERO_OR_ONE_START"><circle r="6" cy="9" cx="21" fill="white" stroke="gray"></circle><path d="M9,0 L9,18" fill="none" stroke="gray"></path></marker></defs><defs><marker orient="auto" markerHeight="18" markerWidth="30" refY="9" refX="30" id="ZERO_OR_ONE_END"><circle r="6" cy="9" cx="9" fill="white" stroke="gray"></circle><path d="M21,0 L21,18" fill="none" stroke="gray"></path></marker></defs><defs><marker orient="auto" markerHeight="36" markerWidth="45" refY="18" refX="18" id="ONE_OR_MORE_START"><path d="M0,18 Q 18,0 36,18 Q 18,36 0,18 M42,9 L42,27" fill="none" stroke="gray"></path></marker></defs><defs><marker orient="auto" markerHeight="36" markerWidth="45" refY="18" refX="27" id="ONE_OR_MORE_END"><path d="M3,9 L3,27 M9,18 Q27,0 45,18 Q27,36 9,18" fill="none" stroke="gray"></path></marker></defs><defs><marker orient="auto" markerHeight="36" markerWidth="57" refY="18" refX="18" id="ZERO_OR_MORE_START"><circle r="6" cy="18" cx="48" fill="white" stroke="gray"></circle><path d="M0,18 Q18,0 36,18 Q18,36 0,18" fill="none" stroke="gray"></path></marker></defs><defs><marker orient="auto" markerHeight="36" markerWidth="57" refY="18" refX="39" id="ZERO_OR_MORE_END"><circle r="6" cy="18" cx="9" fill="white" stroke="gray"></circle><path d="M21,18 Q39,0 57,18 Q39,36 21,18" fill="none" stroke="gray"></path></marker></defs><path style="stroke: gray; fill: none;" marker-start="url(#ONLY_ONE_START)" marker-end="url(#ONLY_ONE_END)" d="M1020,69.57084040784554L967.9260508219401,82.14236700653795C915.8521016438802,94.71389360523035,811.7042032877604,119.85694680261518,759.6302541097006,140.7618067346409C707.5563049316406,161.66666666666666,707.5563049316406,178.33333333333334,707.5563049316406,186.66666666666666L707.5563049316406,195" class="er relationshipLine"></path><path style="stroke: gray; fill: none;" marker-start="url(#ONLY_ONE_START)" marker-end="url(#ONLY_ONE_END)" d="M1029.833493913923,95L1020.9076036725725,103.33333333333333C1011.981713431222,111.66666666666667,994.1299329485213,128.33333333333334,985.2040427071707,151.25C976.2781524658203,174.16666666666666,976.2781524658203,203.33333333333334,976.2781524658203,232.5C976.2781524658203,261.6666666666667,976.2781524658203,290.8333333333333,921.6644840240479,317.83291804968593C867.0508155822754,344.8325027660385,757.8234786987305,369.665005532077,703.209810256958,382.08125691509616L648.5961418151855,394.4975082981154" class="er relationshipLine"></path><path style="stroke: gray; fill: none;" marker-start="url(#ONLY_ONE_START)" marker-end="url(#ONLY_ONE_END)" d="M1072.6906367710658,95L1073.2885560535249,103.33333333333333C1073.886475335984,111.66666666666667,1075.0823139009021,128.33333333333334,1075.6802331833612,151.25C1076.2781524658203,174.16666666666666,1076.2781524658203,203.33333333333334,1076.2781524658203,232.5C1076.2781524658203,261.6666666666667,1076.2781524658203,290.8333333333333,1076.2781524658203,320C1076.2781524658203,349.1666666666667,1076.2781524658203,378.3333333333333,1076.2781524658203,407.5C1076.2781524658203,436.6666666666667,1076.2781524658203,465.8333333333333,1076.2781524658203,495C1076.2781524658203,524.1666666666666,1076.2781524658203,553.3333333333334,1076.2781524658203,582.5C1076.2781524658203,611.6666666666666,1076.2781524658203,640.8333333333334,985.0584875742594,668.504151666213C893.8388226826986,696.1749699990927,711.3994928995768,722.3499399981853,620.179828008016,735.4374249977318L528.9601631164551,748.5249099972781" class="er relationshipLine"></path><path style="stroke: gray; fill: none;" marker-start="url(#ONLY_ONE_START)" marker-end="url(#ONLY_ONE_END)" d="M657.7766848972866,270L646.7145471118746,278.3333333333333C635.6524093264626,286.6666666666667,613.5281337556385,303.3333333333333,602.4659959702265,320C591.4038581848145,336.6666666666667,591.4038581848145,353.3333333333333,591.4038581848145,361.6666666666667L591.4038581848145,370" class="er relationshipLine"></path><path style="stroke: gray; fill: none;" marker-start="url(#ONLY_ONE_START)" marker-end="url(#ONLY_ONE_END)" d="M534.2115745544434,418.53737422584527L468.17726707458496,431.2811451882044C402.14295959472656,444.0249161505635,270.07434463500977,469.51245807528176,204.04003715515137,490.5895623709742C138.00572967529297,511.6666666666667,138.00572967529297,528.3333333333334,138.00572967529297,536.6666666666666L138.00572967529297,545" class="er relationshipLine"></path><path style="stroke: gray; fill: none;" marker-start="url(#ONLY_ONE_START)" marker-end="url(#ONLY_ONE_END)" d="M108.86041695731026,620L102.38368079775854,628.3333333333334C95.90694463820684,636.6666666666666,82.95347231910343,653.3333333333334,76.4767361595517,670C70,686.6666666666666,70,703.3333333333334,70,711.6666666666666L70,720" class="er relationshipLine"></path><path style="stroke: gray; fill: none;" marker-start="url(#ONLY_ONE_START)" marker-end="url(#ONLY_ONE_END)" d="M534.2115745544434,436.6961036971619L515.1763121287028,446.4134197476349C496.1410497029622,456.13073579810793,458.07052485148114,475.565367899054,439.03526242574054,493.61601728286035C420,511.6666666666667,420,528.3333333333334,420,536.6666666666666L420,545" class="er relationshipLine"></path><path style="stroke: gray; fill: none;" marker-start="url(#ONLY_ONE_START)" marker-end="url(#ONLY_ONE_END)" d="M592.945061819894,445L593.2875515165783,453.3333333333333C593.6300412132626,461.6666666666667,594.3150206066313,478.3333333333333,594.6575103033157,501.25C595,524.1666666666666,595,553.3333333333334,595,582.5C595,611.6666666666666,595,640.8333333333334,582.7527483985538,663.75C570.5054967971075,686.6666666666666,546.010993594215,703.3333333333334,533.7637419927688,711.6666666666666L521.5164903913226,720" class="er relationshipLine"></path><path style="stroke: gray; fill: none;" marker-start="url(#ONLY_ONE_START)" marker-end="url(#ONLY_ONE_END)" d="M151.71755981445312,620L154.76463317871094,628.3333333333334C157.81170654296875,636.6666666666666,163.90585327148438,653.3333333333334,205.9275188446045,673.172174183202C247.9491844177246,693.0110150330706,325.8983688354492,716.0220300661413,364.8729610443115,727.5275375826765L403.8475532531738,739.0330450992119" class="er relationshipLine"></path><path style="stroke: gray; fill: none;" marker-start="url(#ONLY_ONE_START)" marker-end="url(#ONLY_ONE_END)" d="M398.57142857142856,620L393.8095238095238,628.3333333333334C389.04761904761904,636.6666666666666,379.52380952380946,653.3333333333334,383.94322458902997,670C388.3626396542504,686.6666666666666,406.7252793085008,703.3333333333334,415.906599135626,711.6666666666666L425.08791896275113,720" class="er relationshipLine"></path><path style="stroke: gray; fill: none;" marker-start="url(#ONLY_ONE_START)" marker-end="url(#ONLY_ONE_END)" d="M1115.5477796282087,95L1125.6695084344772,103.33333333333333C1135.7912372407459,111.66666666666667,1156.034694853283,128.33333333333334,1166.1564236595516,151.25C1176.2781524658203,174.16666666666666,1176.2781524658203,203.33333333333334,1176.2781524658203,232.5C1176.2781524658203,261.6666666666667,1176.2781524658203,290.8333333333333,1176.2781524658203,320C1176.2781524658203,349.1666666666667,1176.2781524658203,378.3333333333333,1176.2781524658203,407.5C1176.2781524658203,436.6666666666667,1176.2781524658203,465.8333333333333,1176.2781524658203,495C1176.2781524658203,524.1666666666666,1176.2781524658203,553.3333333333334,1176.2781524658203,582.5C1176.2781524658203,611.6666666666666,1176.2781524658203,640.8333333333334,1109.012128829956,668.3924760388201C1041.7461051940918,695.9516187443069,907.2140579223633,721.9032374886137,839.948034286499,734.8790468607672L772.6820106506348,747.8548562329206" class="er relationshipLine"></path><path style="stroke: gray; fill: none;" marker-start="url(#ONLY_ONE_START)" marker-end="url(#ONLY_ONE_END)" d="M757.5563049316406,262.9407442226871L773.1766128540039,272.4506201855726C788.7969207763672,281.96049614845805,820.0375366210938,300.980248074229,835.657844543457,325.07345737044784C851.2781524658203,349.1666666666667,851.2781524658203,378.3333333333333,851.2781524658203,407.5C851.2781524658203,436.6666666666667,851.2781524658203,465.8333333333333,851.2781524658203,495C851.2781524658203,524.1666666666666,851.2781524658203,553.3333333333334,851.2781524658203,582.5C851.2781524658203,611.6666666666666,851.2781524658203,640.8333333333334,838.1787954966227,664.3297935974268C825.0794385274252,687.8262538615204,798.8807245890299,705.6525077230408,785.7813676198324,714.5656346538011L772.6820106506348,723.4787615845612" class="er relationshipLine"></path><path style="stroke: gray; fill: none;" marker-start="url(#ONLY_ONE_START)" marker-end="url(#ONLY_ONE_END)" d="M647.6659235273089,445L660.1686047145299,453.3333333333333C672.6712859017508,461.6666666666667,697.6766482761929,478.3333333333333,710.1793294634139,501.25C722.6820106506348,524.1666666666666,722.6820106506348,553.3333333333334,722.6820106506348,582.5C722.6820106506348,611.6666666666666,722.6820106506348,640.8333333333334,722.6820106506348,663.75C722.6820106506348,686.6666666666666,722.6820106506348,703.3333333333334,722.6820106506348,711.6666666666666L722.6820106506348,720" class="er relationshipLine"></path><path style="stroke: gray; fill: none;" marker-start="url(#ONLY_ONE_START)" marker-end="url(#ONLY_ONE_END)" d="M194.574702671596,620L207.14558555966332,628.3333333333334C219.71646844773068,636.6666666666666,244.85823422386534,653.3333333333334,324.54278555370513,674.639229857801C404.2273368835449,695.9451263822685,538.4546737670898,721.8902527645372,605.5683422088623,734.8628159556715L672.6820106506348,747.8353791468058" class="er relationshipLine"></path><path style="stroke: gray; fill: none;" marker-start="url(#ONLY_ONE_START)" marker-end="url(#ONLY_ONE_END)" d="M441.42857142857144,620L446.1904761904762,628.3333333333334C450.95238095238096,636.6666666666666,460.47619047619054,653.3333333333334,499.0184303465344,673.3642913387893C537.5606702168783,693.3952493442453,605.1213404337565,716.7904986884905,638.9016755421957,728.4881233606133L672.6820106506348,740.1857480327359" class="er relationshipLine"></path><g transform="translate(1020,20 )" id="entity-Properties-23d1ef15-5dcb-5667-88d6-17e05a748b57"><rect height="75" width="100" y="0" x="0" class="er entityBox"></rect><text style="dominant-baseline: middle; text-anchor: middle; font-size: 12px;" transform="translate(50,37.5)" y="0" x="0" id="text-entity-Properties-23d1ef15-5dcb-5667-88d6-17e05a748b57" class="er entityLabel">Properties</text></g><g transform="translate(657.5563049316406,195 )" id="entity-Cities-53634e5d-12c2-559a-b881-258c22e44169"><rect height="75" width="100" y="0" x="0" class="er entityBox"></rect><text style="dominant-baseline: middle; text-anchor: middle; font-size: 12px;" transform="translate(50,37.5)" y="0" x="0" id="text-entity-Cities-53634e5d-12c2-559a-b881-258c22e44169" class="er entityLabel">Cities</text></g><g transform="translate(534.2115745544434,370 )" id="entity-Neighborhoods-246d34ed-8f5a-5086-b79f-52280ce729f4"><rect height="75" width="114.38456726074219" y="0" x="0" class="er entityBox"></rect><text style="dominant-baseline: middle; text-anchor: middle; font-size: 12px;" transform="translate(57.192283630371094,37.5)" y="0" x="0" id="text-entity-Neighborhoods-246d34ed-8f5a-5086-b79f-52280ce729f4" class="er entityLabel">Neighborhoods</text></g><g transform="translate(403.8475532531738,720 )" id="entity-SocialMediaPosts-592ab306-7a8c-58b8-a2cd-3918d12c5b8c"><rect height="75" width="125.11260986328125" y="0" x="0" class="er entityBox"></rect><text style="dominant-baseline: middle; text-anchor: middle; font-size: 12px;" transform="translate(62.556304931640625,37.5)" y="0" x="0" id="text-entity-SocialMediaPosts-592ab306-7a8c-58b8-a2cd-3918d12c5b8c" class="er entityLabel">SocialMediaPosts</text></g><g transform="translate(81.20947265625,545 )" id="entity-Establishments-39c05e73-3250-53cc-b5df-258dfbf61871"><rect height="75" width="113.59251403808594" y="0" x="0" class="er entityBox"></rect><text style="dominant-baseline: middle; text-anchor: middle; font-size: 12px;" transform="translate(56.79625701904297,37.5)" y="0" x="0" id="text-entity-Establishments-39c05e73-3250-53cc-b5df-258dfbf61871" class="er entityLabel">Establishments</text></g><g transform="translate(20,720 )" id="entity-Reviews-5bc97cb8-91d5-5dd4-a66a-2d4b34fc0ba6"><rect height="75" width="100" y="0" x="0" class="er entityBox"></rect><text style="dominant-baseline: middle; text-anchor: middle; font-size: 12px;" transform="translate(50,37.5)" y="0" x="0" id="text-entity-Reviews-5bc97cb8-91d5-5dd4-a66a-2d4b34fc0ba6" class="er entityLabel">Reviews</text></g><g transform="translate(370,545 )" id="entity-PressArticles-0e55b9d1-7604-5b79-ad27-11bae3c7b8dc"><rect height="75" width="100" y="0" x="0" class="er entityBox"></rect><text style="dominant-baseline: middle; text-anchor: middle; font-size: 12px;" transform="translate(50,37.5)" y="0" x="0" id="text-entity-PressArticles-0e55b9d1-7604-5b79-ad27-11bae3c7b8dc" class="er entityLabel">PressArticles</text></g><g transform="translate(672.6820106506348,720 )" id="entity-Statistics-c0f6d264-e01b-5636-930f-120c408d135f"><rect height="75" width="100" y="0" x="0" class="er entityBox"></rect><text style="dominant-baseline: middle; text-anchor: middle; font-size: 12px;" transform="translate(50,37.5)" y="0" x="0" id="text-entity-Statistics-c0f6d264-e01b-5636-930f-120c408d135f" class="er entityLabel">Statistics</text></g><rect height="14" width="25.40625" y="105.2765884399414" x="836.533447265625" class="er relationshipLabelBox"></rect><text style="text-anchor: middle; dominant-baseline: middle; font-size: 12px;" y="112.2765884399414" x="849.236572265625" id="rel1" class="er relationshipLabel">is_in</text><rect height="14" width="25.40625" y="315.1302795410156" x="899.77783203125" class="er relationshipLabelBox"></rect><text style="text-anchor: middle; dominant-baseline: middle; font-size: 12px;" y="322.1302795410156" x="912.48095703125" id="rel2" class="er relationshipLabel">is_in</text><rect height="14" width="19.4400634765625" y="626.8131103515625" x="1047.8287963867188" class="er relationshipLabelBox"></rect><text style="text-anchor: middle; dominant-baseline: middle; font-size: 12px;" y="633.8131103515625" x="1057.548828125" id="rel3" class="er relationshipLabel">has</text><rect height="14" width="19.44012451171875" y="304.00640869140625" x="599.7028503417969" class="er relationshipLabelBox"></rect><text style="text-anchor: middle; dominant-baseline: middle; font-size: 12px;" y="311.00640869140625" x="609.4229125976562" id="rel4" class="er relationshipLabel">has</text><rect height="14" width="19.440093994140625" y="453.74627685546875" x="312.79920959472656" class="er relationshipLabelBox"></rect><text style="text-anchor: middle; dominant-baseline: middle; font-size: 12px;" y="460.74627685546875" x="322.5192565917969" id="rel5" class="er relationshipLabel">has</text><rect height="14" width="19.440093994140625" y="658.8379516601562" x="68.50360107421875" class="er relationshipLabelBox"></rect><text style="text-anchor: middle; dominant-baseline: middle; font-size: 12px;" y="665.8379516601562" x="78.22364807128906" id="rel6" class="er relationshipLabel">has</text><rect height="14" width="19.440093994140625" y="470.1277160644531" x="450.81422424316406" class="er relationshipLabelBox"></rect><text style="text-anchor: middle; dominant-baseline: middle; font-size: 12px;" y="477.1277160644531" x="460.5342712402344" id="rel7" class="er relationshipLabel">has</text><rect height="14" width="19.4400634765625" y="590.250244140625" x="585.2207641601562" class="er relationshipLabelBox"></rect><text style="text-anchor: middle; dominant-baseline: middle; font-size: 12px;" y="597.250244140625" x="594.9407958984375" id="rel8" class="er relationshipLabel">has</text><rect height="14" width="19.440093994140625" y="689.7603759765625" x="256.7417755126953" class="er relationshipLabelBox"></rect><text style="text-anchor: middle; dominant-baseline: middle; font-size: 12px;" y="696.7603759765625" x="266.4618225097656" id="rel9" class="er relationshipLabel">has</text><rect height="14" width="19.440093994140625" y="668.6509399414062" x="376.22837829589844" class="er relationshipLabelBox"></rect><text style="text-anchor: middle; dominant-baseline: middle; font-size: 12px;" y="675.6509399414062" x="385.94842529296875" id="rel10" class="er relationshipLabel">has</text><rect height="14" width="19.4400634765625" y="553.4049682617188" x="1166.5581665039062" class="er relationshipLabelBox"></rect><text style="text-anchor: middle; dominant-baseline: middle; font-size: 12px;" y="560.4049682617188" x="1176.2781982421875" id="rel11" class="er relationshipLabel">has</text><rect height="14" width="19.44012451171875" y="481.54986572265625" x="841.5580749511719" class="er relationshipLabelBox"></rect><text style="text-anchor: middle; dominant-baseline: middle; font-size: 12px;" y="488.54986572265625" x="851.2781372070312" id="rel12" class="er relationshipLabel">has</text><rect height="14" width="19.4400634765625" y="560.2224731445312" x="712.8947143554688" class="er relationshipLabelBox"></rect><text style="text-anchor: middle; dominant-baseline: middle; font-size: 12px;" y="567.2224731445312" x="722.61474609375" id="rel13" class="er relationshipLabel">has</text><rect height="14" width="19.440093994140625" y="692.1796264648438" x="418.94789123535156" class="er relationshipLabelBox"></rect><text style="text-anchor: middle; dominant-baseline: middle; font-size: 12px;" y="699.1796264648438" x="428.6679382324219" id="rel14" class="er relationshipLabel">has</text><rect height="14" width="19.44012451171875" y="687.9915771484375" x="537.7518005371094" class="er relationshipLabelBox"></rect><text style="text-anchor: middle; dominant-baseline: middle; font-size: 12px;" y="694.9915771484375" x="547.4718627929688" id="rel15" class="er relationshipLabel">has</text></svg>